<svg width="189" height="42" viewBox="0 0 189 42" fill="none" xmlns="http://www.w3.org/2000/svg">
<path d="M3.526 34.5033L0.815119 30.6663H2.77338L4.61473 33.4111L6.47069 30.6663H8.41434L5.69616 34.5033L8.55317 38.5105H6.60953L4.61473 35.5743L2.62724 38.5105H0.683594L3.526 34.5033Z" fill="white"/>
<path d="M8.74315 30.6663H10.6137L12.2578 35.1132C12.5062 35.7468 12.6719 36.3426 12.7547 36.9005H12.8131C12.857 36.6405 12.9373 36.3261 13.0543 35.9573C13.1712 35.5837 13.7898 33.8201 14.9102 30.6663H16.7662L13.31 39.5531C12.6816 41.1844 11.6343 42 10.168 42C9.78805 42 9.41783 41.9598 9.05735 41.8795V40.5603C9.31553 40.617 9.61024 40.6454 9.94149 40.6454C10.7696 40.6454 11.3517 40.1796 11.6879 39.2482L11.9874 38.5105L8.74315 30.6663Z" fill="white"/>
<path d="M25.7464 41.2837H24.1462V38.5105H18.6075V41.2837H17.0219V37.2197H17.6795C18.2544 36.4206 18.7098 35.456 19.0459 34.326C19.3869 33.1912 19.5891 31.9713 19.6524 30.6663H24.5627V37.2197H25.7464V41.2837ZM22.8748 37.2197V31.9429H21.1357C21.0432 32.9169 20.8483 33.8768 20.5512 34.8225C20.2589 35.7681 19.9009 36.5672 19.4771 37.2197H22.8748Z" fill="white"/>
<path d="M34.4125 34.5742C34.4125 35.8556 34.0739 36.8556 33.3968 37.5743C32.7197 38.293 31.7771 38.6524 30.569 38.6524C29.8139 38.6524 29.1466 38.4869 28.5669 38.1559C27.9872 37.8249 27.5415 37.3497 27.2297 36.7303C26.918 36.1109 26.7621 35.3922 26.7621 34.5742C26.7621 33.3023 27.0982 32.3094 27.7704 31.5954C28.4427 30.8814 29.3901 30.5244 30.6128 30.5244C31.782 30.5244 32.7075 30.8909 33.3895 31.6237C34.0715 32.3519 34.4125 33.3354 34.4125 34.5742ZM28.5304 34.5742C28.5304 36.3852 29.2197 37.2906 30.5982 37.2906C31.9622 37.2906 32.6442 36.3852 32.6442 34.5742C32.6442 32.7822 31.9573 31.8862 30.5836 31.8862C29.8627 31.8862 29.339 32.1179 29.0126 32.5812C28.6911 33.0446 28.5304 33.7089 28.5304 34.5742Z" fill="white"/>
<path d="M40.3749 34.4749V30.6663H41.9751V34.4749L45.0879 30.6663H46.9L43.7215 34.4607L47.185 38.5105H45.2925L41.9751 34.5317V38.5105H40.3749V34.5317L37.0649 38.5105H35.1797L38.6359 34.4607L35.4647 30.6663H37.2768L40.3749 34.4749Z" fill="white"/>
<path d="M51.9637 38.6524C50.7069 38.6524 49.7229 38.2978 49.0117 37.5885C48.3054 36.8745 47.9522 35.8934 47.9522 34.6451C47.9522 33.3638 48.281 32.3566 48.9387 31.6237C49.5963 30.8909 50.4999 30.5244 51.6495 30.5244C52.7164 30.5244 53.5591 30.8388 54.1777 31.4677C54.7964 32.0966 55.1057 32.9619 55.1057 34.0636V34.9643H49.7205C49.7449 35.7256 49.9568 36.3119 50.3562 36.7232C50.7557 37.1299 51.3183 37.3332 52.0441 37.3332C52.5215 37.3332 52.9648 37.2906 53.374 37.2055C53.788 37.1157 54.2313 36.9691 54.7038 36.7658V38.1205C54.2849 38.3143 53.8611 38.4514 53.4324 38.5318C53.0038 38.6122 52.5142 38.6524 51.9637 38.6524ZM51.6495 31.7869C51.104 31.7869 50.6655 31.9547 50.3343 32.2904C50.0079 32.6262 49.8131 33.1155 49.7497 33.7586H53.4178C53.4081 33.1108 53.2473 32.6214 52.9356 32.2904C52.6238 31.9547 52.1951 31.7869 51.6495 31.7869Z" fill="white"/>
<path d="M60.3156 38.6524C59.0929 38.6524 58.1625 38.3072 57.5243 37.6169C56.8911 36.9218 56.5744 35.9265 56.5744 34.631C56.5744 33.3118 56.9057 32.2975 57.5682 31.5883C58.2355 30.879 59.1976 30.5244 60.4544 30.5244C61.3069 30.5244 62.0741 30.6781 62.7561 30.9854L62.2373 32.3259C61.5115 32.0517 60.9123 31.9145 60.4398 31.9145C59.0417 31.9145 58.3427 32.8153 58.3427 34.6168C58.3427 35.4962 58.5156 36.1582 58.8615 36.6027C59.2122 37.0424 59.7237 37.2623 60.396 37.2623C61.1607 37.2623 61.8841 37.0779 62.5661 36.7091V38.163C62.2592 38.338 61.9304 38.4633 61.5797 38.5389C61.2338 38.6146 60.8124 38.6524 60.3156 38.6524Z" fill="white"/>
<path d="M70.538 30.6663V31.9713H67.9075V38.5105H66.1831V31.9713H63.5526V30.6663H70.538Z" fill="white"/>
<path d="M79.109 32.6734C79.109 33.6002 78.5513 34.1605 77.4357 34.3544V34.4111C78.0593 34.482 78.5367 34.6735 78.8679 34.9856C79.1992 35.2977 79.3648 35.7019 79.3648 36.1984C79.3648 36.9407 79.0725 37.5129 78.488 37.9148C77.9083 38.312 77.0631 38.5105 75.9524 38.5105H72.0944V30.6663H75.9378C78.052 30.6663 79.109 31.3353 79.109 32.6734ZM77.6038 36.0991C77.6038 35.7208 77.4528 35.4537 77.1508 35.2976C76.8488 35.1369 76.3957 35.0565 75.7917 35.0565H73.8115V37.2765H75.8355C77.0144 37.2765 77.6038 36.884 77.6038 36.0991ZM77.3919 32.8153C77.3919 32.5032 77.2653 32.2786 77.0119 32.1415C76.7635 31.9996 76.3909 31.9287 75.894 31.9287H73.8115V33.8153H75.6382C76.2131 33.8153 76.649 33.7444 76.9462 33.6025C77.2433 33.456 77.3919 33.1935 77.3919 32.8153Z" fill="white"/>
<path d="M84.6696 38.6524C83.4128 38.6524 82.4288 38.2978 81.7176 37.5885C81.0113 36.8745 80.6581 35.8934 80.6581 34.6451C80.6581 33.3638 80.9869 32.3566 81.6445 31.6237C82.3022 30.8909 83.2058 30.5244 84.3554 30.5244C85.4222 30.5244 86.265 30.8388 86.8836 31.4677C87.5023 32.0966 87.8116 32.9619 87.8116 34.0636V34.9643H82.4264C82.4508 35.7256 82.6627 36.3119 83.0621 36.7232C83.4615 37.1299 84.0242 37.3332 84.75 37.3332C85.2274 37.3332 85.6707 37.2906 86.0799 37.2055C86.4939 37.1157 86.9372 36.9691 87.4097 36.7658V38.1205C86.9908 38.3143 86.567 38.4514 86.1383 38.5318C85.7096 38.6122 85.2201 38.6524 84.6696 38.6524ZM84.3554 31.7869C83.8098 31.7869 83.3714 31.9547 83.0402 32.2904C82.7138 32.6262 82.519 33.1155 82.4556 33.7586H86.1237C86.114 33.1108 85.9532 32.6214 85.6414 32.2904C85.3297 31.9547 84.901 31.7869 84.3554 31.7869Z" fill="white"/>
<path d="M91.4797 30.6663V33.8153H95.2866V30.6663H97.0038V38.5105H95.2866V35.1274H91.4797V38.5105H89.7626V30.6663H91.4797Z" fill="white"/>
<path d="M101.183 30.6663V33.8153H104.99V30.6663H106.707V38.5105H104.99V35.1274H101.183V38.5105H99.4662V30.6663H101.183Z" fill="white"/>
<path d="M114.226 38.5105L113.883 37.4183H113.824C113.435 37.8959 113.042 38.2221 112.648 38.3971C112.253 38.5673 111.747 38.6524 111.128 38.6524C110.334 38.6524 109.713 38.4443 109.265 38.0283C108.822 37.6122 108.6 37.0235 108.6 36.2622C108.6 35.4537 108.909 34.8437 109.528 34.4324C110.146 34.021 111.089 33.7964 112.356 33.7586L113.751 33.716V33.2976C113.751 32.7964 113.629 32.4228 113.386 32.177C113.147 31.9264 112.775 31.8011 112.268 31.8011C111.854 31.8011 111.457 31.8602 111.077 31.9784C110.697 32.0966 110.332 32.2361 109.981 32.3968L109.426 31.2053C109.864 30.9831 110.344 30.8152 110.865 30.7017C111.386 30.5835 111.878 30.5244 112.341 30.5244C113.369 30.5244 114.143 30.7419 114.665 31.1769C115.191 31.6119 115.454 32.2952 115.454 33.2266V38.5105H114.226ZM111.669 37.3757C112.292 37.3757 112.792 37.2079 113.167 36.8722C113.547 36.5317 113.737 36.0565 113.737 35.4466V34.7657L112.699 34.8083C111.89 34.8366 111.301 34.969 110.931 35.2054C110.565 35.4371 110.383 35.7941 110.383 36.2764C110.383 36.6263 110.49 36.8982 110.704 37.092C110.919 37.2812 111.24 37.3757 111.669 37.3757Z" fill="white"/>
<path d="M118.676 38.5105H116.754L119.005 35.2976C118.459 35.1463 118.031 34.8768 117.719 34.4891C117.407 34.0967 117.251 33.612 117.251 33.0352C117.251 32.2928 117.524 31.7136 118.07 31.2975C118.615 30.8767 119.361 30.6663 120.306 30.6663H123.988V38.5105H122.264V35.4891H120.634L118.676 38.5105ZM118.925 33.0493C118.925 33.4512 119.08 33.7539 119.392 33.9572C119.709 34.1558 120.133 34.2551 120.664 34.2551H122.264V31.9287H120.393C119.926 31.9287 119.563 32.0257 119.305 32.2195C119.051 32.4134 118.925 32.69 118.925 33.0493Z" fill="white"/>
<path d="M135.555 30.6663V31.9713H132.048V38.5105H130.331V30.6663H135.555Z" fill="white"/>
<path d="M142.168 38.5105L141.825 37.4183H141.766C141.376 37.8959 140.984 38.2221 140.59 38.3971C140.195 38.5673 139.688 38.6524 139.07 38.6524C138.276 38.6524 137.655 38.4443 137.207 38.0283C136.763 37.6122 136.542 37.0235 136.542 36.2622C136.542 35.4537 136.851 34.8437 137.47 34.4324C138.088 34.021 139.031 33.7964 140.297 33.7586L141.693 33.716V33.2976C141.693 32.7964 141.571 32.4228 141.328 32.177C141.089 31.9264 140.716 31.8011 140.21 31.8011C139.796 31.8011 139.399 31.8602 139.019 31.9784C138.639 32.0966 138.273 32.2361 137.923 32.3968L137.367 31.2053C137.806 30.9831 138.286 30.8152 138.807 30.7017C139.328 30.5835 139.82 30.5244 140.283 30.5244C141.311 30.5244 142.085 30.7419 142.606 31.1769C143.132 31.6119 143.396 32.2952 143.396 33.2266V38.5105H142.168ZM139.611 37.3757C140.234 37.3757 140.733 37.2079 141.108 36.8722C141.488 36.5317 141.678 36.0565 141.678 35.4466V34.7657L140.641 34.8083C139.832 34.8366 139.243 34.969 138.873 35.2054C138.507 35.4371 138.325 35.7941 138.325 36.2764C138.325 36.6263 138.432 36.8982 138.646 37.092C138.86 37.2812 139.182 37.3757 139.611 37.3757Z" fill="white"/>
<path d="M152.434 38.5105H150.702V31.9713H148.474C148.337 33.6546 148.152 34.969 147.919 35.9147C147.69 36.8604 147.388 37.5507 147.012 37.9857C146.642 38.4207 146.16 38.6382 145.566 38.6382C145.191 38.6382 144.876 38.5862 144.623 38.4822V37.1772C144.803 37.2434 144.984 37.2765 145.164 37.2765C145.661 37.2765 146.05 36.7351 146.333 35.6523C146.62 34.5648 146.844 32.9028 147.005 30.6663H152.434V38.5105Z" fill="white"/>
<path d="M158.426 38.6524C157.169 38.6524 156.185 38.2978 155.474 37.5885C154.768 36.8745 154.414 35.8934 154.414 34.6451C154.414 33.3638 154.743 32.3566 155.401 31.6237C156.058 30.8909 156.962 30.5244 158.112 30.5244C159.179 30.5244 160.021 30.8388 160.64 31.4677C161.259 32.0966 161.568 32.9619 161.568 34.0636V34.9643H156.183C156.207 35.7256 156.419 36.3119 156.818 36.7232C157.218 37.1299 157.78 37.3332 158.506 37.3332C158.984 37.3332 159.427 37.2906 159.836 37.2055C160.25 37.1157 160.694 36.9691 161.166 36.7658V38.1205C160.747 38.3143 160.323 38.4514 159.895 38.5318C159.466 38.6122 158.976 38.6524 158.426 38.6524ZM158.112 31.7869C157.566 31.7869 157.128 31.9547 156.796 32.2904C156.47 32.6262 156.275 33.1155 156.212 33.7586H159.88C159.87 33.1108 159.71 32.6214 159.398 32.2904C159.086 31.9547 158.657 31.7869 158.112 31.7869Z" fill="white"/>
<path d="M167.618 38.6524C166.595 38.6524 165.801 38.2954 165.236 37.5814H165.134C165.202 38.2434 165.236 38.6453 165.236 38.7871V42H163.519V30.6663H164.907C164.946 30.8128 165.027 31.1627 165.148 31.7159H165.236C165.772 30.9216 166.576 30.5244 167.647 30.5244C168.656 30.5244 169.44 30.879 170 31.5883C170.565 32.2975 170.848 33.2928 170.848 34.5742C170.848 35.8556 170.56 36.8556 169.986 37.5743C169.416 38.293 168.626 38.6524 167.618 38.6524ZM167.202 31.8862C166.52 31.8862 166.02 32.08 165.704 32.4678C165.392 32.8555 165.236 33.4749 165.236 34.326V34.5742C165.236 35.5293 165.392 36.222 165.704 36.6523C166.015 37.0779 166.524 37.2906 167.231 37.2906C167.825 37.2906 168.283 37.0542 168.604 36.5814C168.926 36.1086 169.087 35.4348 169.087 34.56C169.087 33.6806 168.926 33.0162 168.604 32.567C168.288 32.1131 167.82 31.8862 167.202 31.8862Z" fill="white"/>
<path d="M176.372 38.6524C175.115 38.6524 174.131 38.2978 173.42 37.5885C172.713 36.8745 172.36 35.8934 172.36 34.6451C172.36 33.3638 172.689 32.3566 173.347 31.6237C174.004 30.8909 174.908 30.5244 176.058 30.5244C177.124 30.5244 177.967 30.8388 178.586 31.4677C179.204 32.0966 179.514 32.9619 179.514 34.0636V34.9643H174.129C174.153 35.7256 174.365 36.3119 174.764 36.7232C175.164 37.1299 175.726 37.3332 176.452 37.3332C176.93 37.3332 177.373 37.2906 177.782 37.2055C178.196 37.1157 178.639 36.9691 179.112 36.7658V38.1205C178.693 38.3143 178.269 38.4514 177.84 38.5318C177.412 38.6122 176.922 38.6524 176.372 38.6524ZM176.058 31.7869C175.512 31.7869 175.074 31.9547 174.742 32.2904C174.416 32.6262 174.221 33.1155 174.158 33.7586H177.826C177.816 33.1108 177.655 32.6214 177.344 32.2904C177.032 31.9547 176.603 31.7869 176.058 31.7869Z" fill="white"/>
<path d="M182.29 38.5105H180.369L182.619 35.2976C182.074 35.1463 181.645 34.8768 181.333 34.4891C181.021 34.0967 180.866 33.612 180.866 33.0352C180.866 32.2928 181.138 31.7136 181.684 31.2975C182.23 30.8767 182.975 30.6663 183.92 30.6663H187.603V38.5105H185.878V35.4891H184.249L182.29 38.5105ZM182.539 33.0493C182.539 33.4512 182.695 33.7539 183.006 33.9572C183.323 34.1558 183.747 34.2551 184.278 34.2551H185.878V31.9287H184.008C183.54 31.9287 183.177 32.0257 182.919 32.2195C182.665 32.4134 182.539 32.69 182.539 33.0493Z" fill="white"/>
<path d="M0.5 22.7342H13.1452C18.1323 22.7342 20.6851 20.542 20.6851 16.3686V16.3037C20.6851 13.2021 19.0621 11.3184 15.9346 10.7825V10.4902C18.555 10.0031 19.9243 8.3467 19.9243 5.65108V5.56988C19.9243 1.89993 17.5407 0 12.8748 0H0.5V22.7342ZM5.4871 9.30479V3.21527H11.3871C13.7707 3.21527 14.9541 4.22207 14.9541 6.20319V6.26815C14.9541 8.28175 13.7707 9.30479 11.3871 9.30479H5.4871ZM5.4871 19.5027V12.2602H11.5392C14.1596 12.2602 15.4613 13.4619 15.4613 15.8165V15.8815C15.4613 18.2848 14.1596 19.5027 11.5392 19.5027H5.4871Z" fill="white"/>
<path d="M25.3827 0V22.7342H30.3022V0H25.3827Z" fill="white"/>
<path d="M40.5956 23.1564C44.5683 23.1564 47.4592 21.4514 48.5242 18.5609L48.8623 18.6421C48.2199 21.7924 48.8961 23.1564 52.7844 23.1564C53.2746 23.1564 53.7649 23.1077 54.1706 23.0427L54.7454 20.2334L53.9001 20.2172C52.9703 20.201 52.6998 19.9899 52.6998 18.8369V11.0261C52.6998 7.16128 50.0288 5.31006 44.3317 5.31006C38.2795 5.31006 35.2197 7.59972 35.4732 11.562L40.3251 11.9517C40.1222 9.33727 41.5085 8.15184 44.2302 8.15184C46.6646 8.15184 47.8142 9.01249 47.8142 10.9774V11.9355L43.013 12.7799C38.2119 13.6405 35.0337 15.102 35.0337 18.6745V18.7232C35.0337 21.5488 37.0285 23.1564 40.5956 23.1564ZM42.5566 20.0061C40.8999 20.0061 40.0039 19.4378 40.0039 18.2686V18.2361C40.0039 16.5635 41.5761 15.8815 44.6867 15.2969L47.8142 14.7123V15.508C47.8142 18.1224 45.3629 20.0061 42.5566 20.0061Z" fill="white"/>
<path d="M58.8852 22.7342H63.8047V14.8097C63.8047 10.9774 65.6812 8.60652 68.7918 8.60652C71.1078 8.60652 72.2574 9.75947 72.2574 11.9679V22.7342H77.1768V10.8312C77.1768 7.25871 74.996 5.37502 70.9388 5.37502C67.2534 5.37502 64.7345 6.93394 63.2468 10.1817L62.9087 10.0355C63.5849 8.10312 63.8216 6.95017 63.8216 5.68355H58.8852V22.7342Z" fill="white"/>
<path d="M91.8149 23.1402C97.6135 23.1402 100.859 20.8992 101.35 16.5635L96.3794 16.0276C96.1765 18.7557 94.6212 20.136 91.8318 20.136C88.7043 20.136 87.0814 18.2523 87.0814 14.5337V13.738C87.0814 10.1005 88.7212 8.26551 91.7811 8.26551C94.6043 8.26551 96.0751 9.77571 96.2948 12.7961L101.197 12.2602C100.809 7.66468 97.6811 5.27759 91.798 5.27759C85.4078 5.27759 82.0436 8.28175 82.0436 14.0303V14.2414C82.0436 20.0873 85.3739 23.1402 91.8149 23.1402Z" fill="white"/>
<path d="M106.25 22.7342H111.17V14.8097C111.17 10.9774 113.029 8.62276 116.157 8.62276C118.473 8.62276 119.622 9.75947 119.622 11.9679V22.7342H124.542V10.8312C124.542 7.25871 122.344 5.37502 118.304 5.37502C114.584 5.37502 112.082 6.93393 110.612 10.1654L110.257 10.0355C110.916 8.21679 111.153 6.86898 111.17 5.26135V0H106.25V22.7342Z" fill="white"/>
<path d="M134.751 23.1564C138.723 23.1564 141.614 21.4514 142.679 18.5609L143.017 18.6421C142.375 21.7924 143.051 23.1564 146.939 23.1564C147.43 23.1564 147.92 23.1077 148.326 23.0427L148.9 20.2334L148.055 20.2172C147.125 20.201 146.855 19.9899 146.855 18.8369V11.0261C146.855 7.16128 144.184 5.31006 138.487 5.31006C132.435 5.31006 129.375 7.59972 129.628 11.562L134.48 11.9517C134.277 9.33727 135.663 8.15184 138.385 8.15184C140.82 8.15184 141.969 9.01249 141.969 10.9774V11.9355L137.168 12.7799C132.367 13.6405 129.189 15.102 129.189 18.6745V18.7232C129.189 21.5488 131.184 23.1564 134.751 23.1564ZM136.712 20.0061C135.055 20.0061 134.159 19.4378 134.159 18.2686V18.2361C134.159 16.5635 135.731 15.8815 138.842 15.2969L141.969 14.7123V15.508C141.969 18.1224 139.518 20.0061 136.712 20.0061Z" fill="white"/>
<path d="M153.04 22.7342H157.96V15.6054C157.96 11.156 159.397 9.51589 163.15 9.25607L165.567 9.07745L164.992 5.14768C161.02 5.43997 159.177 6.64164 157.351 10.1817L157.03 10.0355C157.824 7.76211 158.01 6.85274 157.977 5.68355H153.04V22.7342Z" fill="white"/>
<path d="M176.435 23.0427C180.087 23.0427 182.471 21.4189 183.671 18.4797L184.026 18.5933C183.451 20.3796 183.147 21.7924 183.13 22.7342H188.1V0H183.181V4.62804C183.181 6.4143 183.434 7.85954 184.043 9.82443L183.705 9.95434C182.504 7.03137 180.104 5.34254 176.435 5.34254C171.364 5.34254 168.693 8.31423 168.693 13.9978V14.4037C168.693 20.0711 171.364 23.0427 176.435 23.0427ZM178.295 20.1198C175.252 20.1198 173.663 18.2523 173.663 14.5661V13.8192C173.663 10.1167 175.252 8.23303 178.295 8.23303C181.473 8.23303 183.181 10.2142 183.181 13.9003V14.4849C183.181 18.1549 181.473 20.1198 178.295 20.1198Z" fill="white"/>
</svg>
